# xmcd
#
# Track frame offsets: 
#        150
#        12887
#        26105
#        37380
#        49480
#        62432
#        75945
#        89350
#        100705
#        113090
#        125030
#        138105
#        151112
#        163920
#        178302
#        192252
#        205067
#        219977
#        233570
#        245670
#        257792
#        270297
#
# Disc length: 3763 seconds
#
# Revision: 2
# Processed by: cddbd v1.5.2PL0 Copyright (c) Steve Scherf et al.
# Submitted via: ExactAudioCopy v1.0b3
#
DISCID=2c0eb116
DTITLE=Arthur "Big Boy" Crudup - Complete Recorded Works 1941-1956 In 
DTITLE=Chronological Order - Vol. 3
DYEAR=1993
DGENRE=Blues
TTITLE0=Mercy Blues
TTITLE1=She's Just Like Caldonia
TTITLE2=Mean Old Santa Fe
TTITLE3=Behind Closed Doors
TTITLE4=She Ain't Nothin' But Trouble
TTITLE5=Oo-Wee Darling
TTITLE6=Anytime Is The Right Time
TTITLE7=My Baby Left Me
TTITLE8=Nobody Wants Me
TTITLE9=Star Bootlegger
TTITLE10=Too Much Competition
TTITLE11=Second Man Blues
TTITLE12=Pearly Lee
TTITLE13=Love Me Mama
TTITLE14=Never No More
TTITLE15=Where Did You Stay Last Night
TTITLE16=I'm Gonna Dig Myself A Hole
TTITLE17=I'm Gonna Dig Myself A Hole (alt. take)
TTITLE18=Goin' Back To Georgia
TTITLE19=Mr. So And So
TTITLE20=Do It If You Want To
TTITLE21=Keep On Drinkin'
EXTD=
EXTT0=
EXTT1=
EXTT2=
EXTT3=
EXTT4=
EXTT5=
EXTT6=
EXTT7=
EXTT8=
EXTT9=
EXTT10=
EXTT11=
EXTT12=
EXTT13=
EXTT14=
EXTT15=
EXTT16=
EXTT17=
EXTT18=
EXTT19=
EXTT20=
EXTT21=
PLAYORDER=
